<svg xmlns="http://www.w3.org/2000/svg" viewBox="0 0 120 120" fill="none">
  <!-- Graduation Cap -->
  <polygon points="60,18 20,40 60,62 100,40" fill="#EA580C"/>
  <polygon points="60,62 100,40 100,55 60,77" fill="#D14D0A"/>
  <polygon points="60,62 20,40 20,55 60,77" fill="#EA580C" opacity="0.85"/>
  <!-- Tassel line -->
  <line x1="82" y1="34" x2="82" y2="75" stroke="#EA580C" stroke-width="3" stroke-linecap="round"/>
  <circle cx="82" cy="78" r="4" fill="#EA580C"/>
  <!-- Circuit board lines -->
  <path d="M30,68 L30,85 L50,85" stroke="#14B8A6" stroke-width="3.5" stroke-linecap="round" stroke-linejoin="round" fill="none"/>
  <path d="M50,85 L65,85 L65,95" stroke="#14B8A6" stroke-width="3.5" stroke-linecap="round" stroke-linejoin="round" fill="none"/>
  <path d="M42,68 L42,78 L58,78" stroke="#14B8A6" stroke-width="3.5" stroke-linecap="round" stroke-linejoin="round" fill="none"/>
  <!-- Circuit nodes -->
  <circle cx="30" cy="68" r="3.5" fill="#14B8A6"/>
  <circle cx="42" cy="68" r="3.5" fill="#14B8A6"/>
  <circle cx="65" cy="95" r="3.5" fill="#14B8A6"/>
  <circle cx="58" cy="78" r="3.5" fill="#14B8A6"/>
</svg>
